<svg width="136" height="28" viewBox="0 0 136 28" fill="none" xmlns="http://www.w3.org/2000/svg">
								<g clip-path="url(#clip0_14087_32700)">
								<path d="M21.9749 9.62267C21.9749 6.96547 20.7449 4.56027 18.7575 2.81867C16.7701 1.07707 14.0243 0 10.9906 0C7.95697 0 5.21114 1.07707 3.22371 2.81867C1.23535 4.55933 0.00632965 6.96547 0.00632965 9.62267C0.00632965 9.62267 -0.634897 17.3171 10.9906 28C22.6161 17.3171 21.9749 9.62267 21.9749 9.62267Z" fill="#0A2AFF"></path>
								<path d="M55.6707 9.17297C53.4517 9.17297 51.4174 9.97937 49.9418 11.4428C48.4691 12.9044 47.6572 14.9176 47.6572 17.1119C47.6572 19.3062 48.4691 21.3194 49.9418 22.781C51.4174 24.2444 53.4517 25.0508 55.6707 25.0508C57.8897 25.0508 59.924 24.2444 61.3995 22.781C62.8723 21.3203 63.6841 19.3071 63.6841 17.1119C63.6841 14.9167 62.8723 12.9035 61.3995 11.4428C59.924 9.97937 57.8897 9.17297 55.6707 9.17297ZM58.6518 20.428C57.8803 21.2895 56.821 21.7636 55.6697 21.7636C54.5185 21.7636 53.4592 21.2895 52.6877 20.428C51.918 19.5684 51.4943 18.3906 51.4943 17.111C51.4943 15.8314 51.918 14.6526 52.6877 13.7939C53.4592 12.9324 54.5185 12.4583 55.6688 12.4583C56.8191 12.4583 57.8784 12.9324 58.6509 13.7939C59.4205 14.6526 59.8443 15.8304 59.8443 17.111C59.8443 18.3915 59.4205 19.5694 58.6509 20.428H58.6518Z" fill="black"></path>
								<path d="M48.6251 24.7988L39.3329 14.0487L48.4329 4.17773H42.9703L34.849 12.9604V12.9119V4.17773H30.6436V24.7988H34.849V15.0557L43.2853 24.7988H48.6251Z" fill="black"></path>
								<path d="M110.086 24.8007L106.722 20.1312L103.328 24.8007H98.6865L104.386 16.9663L98.9359 9.43896H103.577L106.723 13.7706L109.87 9.43896H114.479L109.029 16.9355L114.728 24.8007H110.087H110.086Z" fill="black"></path>
								<path d="M99.1394 15.7416C98.4532 11.9411 95.1786 9.18213 91.3528 9.18213C86.9795 9.18213 83.4209 12.7372 83.4209 17.1071C83.4209 21.4769 86.9786 25.0591 91.3528 25.0591C94.1043 25.0591 96.7826 23.7057 98.1747 21.6888L95.0736 20.1553C94.1455 21.0821 92.7515 21.6477 91.3528 21.6477C89.2819 21.6477 87.6564 20.4251 87.2148 18.5733H99.1413L99.1694 18.3456C99.3006 17.2984 99.2903 16.4687 99.1384 15.7416H99.1394ZM87.227 15.5549C87.6526 14.0607 89.0579 12.5645 91.3247 12.5645C93.5915 12.5645 94.9686 14.0607 95.3942 15.5549H87.2279H87.227Z" fill="black"></path>
								<path d="M77.4648 3.73159V10.8856C77.4648 10.8856 75.872 9.18785 73.1337 9.18785C70.8032 9.18785 68.8907 9.91399 67.4498 11.3457C65.949 12.8363 65.123 14.8859 65.123 17.1165C65.123 19.3472 65.9499 21.4015 67.4498 22.892C68.8945 24.3237 70.8069 25.0499 73.1337 25.0499C75.5767 25.0499 77.4648 23.5864 77.4648 23.5864L77.7423 24.7979H81.6703V2.70679L77.4648 3.73159ZM77.4301 17.1212V19.8437C77.2492 20.2068 76.7786 20.6091 76.7148 20.666C75.8683 21.4108 74.8643 21.8523 73.4215 21.7767C72.1859 21.7141 71.1435 21.254 70.4038 20.442C69.6163 19.5805 69.1851 18.4036 69.1851 17.1249V17.1165C69.1851 15.8379 69.6173 14.6609 70.4038 13.7995C71.1435 12.9884 72.1859 12.5273 73.4215 12.4657C74.8643 12.3901 75.8673 12.8316 76.7148 13.5764C76.7786 13.6343 77.2492 14.0356 77.4301 14.3987V17.1212Z" fill="black"></path>
								<path d="M120.28 13.8207H123.684V12.5215H120.28V10.7482H123.943V9.43872H118.936V16.9782H123.996V15.6687H120.28V13.8207Z" fill="black"></path>
								<path d="M124.474 10.7482H126.803V16.9782H128.148V10.7482H130.467V9.43872H124.474V10.7482Z" fill="black"></path>
								<path d="M131.096 16.9782H132.439V13.9785H135.896V12.6699H132.439V10.7482H136.001V9.43872H131.096V16.9782Z" fill="black"></path>
								</g>
								<defs>
								<clipPath id="clip0_14087_32700">
								<rect width="136" height="28" fill="white"></rect>
								</clipPath>
								</defs>
							</svg>