<svg width="133" height="26" viewBox="0 0 133 26" fill="none" xmlns="http://www.w3.org/2000/svg">
							<g clip-path="url(#clip0_224_1278)">
								<path d="M7.32302 8.35068C6.80891 9.48667 6.10866 10.5259 5.25206 11.4242C4.30043 12.4487 3.21189 13.3327 2.01827 14.0502L0 11.6595C1.5182 10.8021 2.83631 9.62243 3.86439 8.20093C4.89899 6.75688 5.5454 5.07573 5.5454 3.18598V0.971776H8.90039V3.12537C8.90774 4.84837 9.5023 6.5157 10.5832 7.84438C11.5789 9.12296 12.8545 10.1484 14.3088 10.8394L12.4978 13.3353C10.0123 11.9751 8.38397 10.3403 7.32302 8.35068ZM5.53662 15.2322H19.1217V25.2888H5.53662V15.2322ZM8.71947 17.9884V22.5576H15.9213V17.9884H8.71947ZM19.1217 14.2855H15.9125V0.420898H19.1217V5.93502H22.8737V8.69298H19.1217V14.2855Z" fill="#003CDC"></path>
								<path d="M31.9691 11.3974C31.1534 10.6451 30.4703 9.75704 29.949 8.77142C29.5608 9.71629 28.8635 10.7325 27.9571 11.713C26.979 12.7589 25.8748 13.6753 24.6706 14.4406L22.6787 11.9982C24.2596 10.9482 25.6806 9.73947 26.638 8.34712C27.6355 6.97833 28.1792 5.32348 28.1907 3.62098V0.971776H31.6054V3.56571C31.6054 5.52677 32.2273 7.05996 33.2355 8.29364C34.1928 9.55406 35.5647 10.4989 36.9366 11.2085L35.1308 13.7614C33.9731 13.1275 32.9088 12.3318 31.9691 11.3974ZM40.6112 24.4509C39.473 25.4225 37.8956 26.0002 36.0319 26.0002C34.1682 26.0002 32.6172 25.4225 31.5036 24.4509C30.3653 23.4276 29.7189 22.0085 29.7189 20.2507C29.7038 19.4731 29.8555 18.7015 30.1637 17.9894C30.4719 17.2773 30.9291 16.6419 31.5036 16.1272C32.6172 15.1021 34.1682 14.4995 36.0319 14.4995C37.8956 14.4995 39.473 15.1021 40.6112 16.1272C41.1748 16.6591 41.6242 17.3032 41.9316 18.0192C42.2389 18.7353 42.3976 19.508 42.3976 20.289C42.3976 21.0701 42.2389 21.8428 41.9316 22.5589C41.6242 23.2749 41.1748 23.919 40.6112 24.4509ZM38.3277 18.0971C37.6883 17.5387 36.8684 17.2391 36.0249 17.2556C34.1612 17.2556 32.8631 18.4644 32.8631 20.2507C32.8631 22.0371 34.1559 23.2707 36.0249 23.2707C37.8939 23.2707 39.2341 22.062 39.2341 20.2507C39.2356 19.8485 39.1565 19.4502 39.0016 19.0799C38.8467 18.7097 38.6192 18.3753 38.333 18.0971H38.3277ZM39.5749 7.6661H35.0465V4.77978H39.5749V0.420898H42.7841V14.4175H39.5749V7.6661Z" fill="#003CDC"></path>
								<path d="M54.5634 14.3907C53.7054 13.5124 52.9893 12.5022 52.4414 11.3974C51.4841 13.7864 49.4659 15.8883 47.3967 17.3858L45.3521 14.8382C47.2509 13.5493 48.6122 12.1854 49.4659 10.6095C50.3195 9.03349 50.7077 7.35411 50.7077 5.27896V4.75304H46.2057V2.02183H58.4717V4.75304H54.0469V5.22548C54.0469 7.30063 54.4351 8.95505 55.3397 10.4258C56.1934 11.8966 57.5389 13.1838 59.4799 14.3658L57.5916 16.8866C56.4856 16.1833 55.4686 15.3451 54.5634 14.3907ZM64.1628 22.4631H60.98V0.420898H64.1628V7.511H67.9675V10.2422H64.1628V22.4631Z" fill="#003CDC"></path>
								<path d="M77.1613 11.8182C76.2303 10.8983 75.5048 9.92666 75.0921 9.00853C74.1593 11.0035 72.1938 13.2355 69.7873 14.7847L67.769 12.3958C69.2982 11.4228 70.6252 10.1559 71.6756 8.66624C72.6856 7.19545 73.332 5.54103 73.332 3.78143V1.31407H76.6958V3.72973C76.6839 5.46092 77.2491 7.14532 78.2995 8.50935C79.2568 9.84822 80.6287 10.8983 82.1042 11.7183L80.2914 14.2624C79.1358 13.6075 78.0812 12.784 77.1613 11.8182ZM73.3057 16.309H76.5149V22.0139H87.6917V24.7968H73.3057V16.309ZM86.8907 17.4892H83.7079V0.420898H86.8907V6.48234H90.6374V9.24385H86.8907V17.4892Z" fill="#003CDC"></path>
								<path d="M99.6609 14.9754H90.8782V12.2638H111.653V14.9754H102.844V19.4858H99.6609V14.9754ZM97.1262 22.0672H108.563V24.7967H93.8924V16.9364H97.1262V22.0672ZM105.846 9.80174C104.577 10.7484 102.921 11.1941 101.266 11.1941C99.5836 11.1941 97.9026 10.7484 96.6607 9.82849C96.0041 9.35714 95.4718 8.72913 95.1106 7.99978C94.7495 7.27043 94.5706 6.46213 94.5897 5.64609C94.5865 4.85262 94.7649 4.06923 95.1109 3.35767C95.4569 2.64611 95.961 2.02583 96.5834 1.54571C97.7989 0.604405 99.48 0.0535278 101.266 0.0535278C103.128 0.0535278 104.758 0.604406 105.976 1.57602C106.588 2.05449 107.082 2.67174 107.417 3.37846C107.753 4.08517 107.921 4.86174 107.908 5.64609C107.927 6.45641 107.749 7.25899 107.389 7.98265C107.029 8.70631 106.499 9.3287 105.846 9.79461V9.80174ZM101.266 2.78296C99.1708 2.78296 97.7217 3.96494 97.7217 5.64609C97.7217 7.32725 99.1181 8.50923 101.266 8.50923C102.275 8.50923 103.155 8.22042 103.776 7.6945C104.089 7.45498 104.342 7.14548 104.517 6.79015C104.692 6.43483 104.783 6.04329 104.785 5.64609C104.785 3.96494 103.309 2.78296 101.266 2.78296Z" fill="#003CDC"></path>
								<path d="M127.525 9.2973V12.6311H132.996V15.332H112.225V12.6311H117.748V9.349C117.641 9.27772 117.546 9.19126 117.463 9.09228C116.532 8.17237 115.937 7.07061 115.937 5.49464C115.932 1.8132 119.269 0.00012207 122.606 0.00012207C126.023 0.00012207 129.257 1.8132 129.257 5.48929C129.268 6.16482 129.139 6.83517 128.877 7.4562C128.614 8.07722 128.225 8.63482 127.736 9.09228L127.525 9.2973ZM127.11 24.5275C125.868 25.3423 124.238 25.763 122.608 25.763C120.978 25.763 119.297 25.3423 118.055 24.5275C116.813 23.7128 116.011 22.4791 116.011 20.8782C116.011 19.3807 116.761 18.1203 117.978 17.2538C119.195 16.3874 120.824 15.9399 122.608 15.9399C124.472 15.9399 126.076 16.4391 127.293 17.2806C128.456 18.147 129.181 19.3807 129.181 20.8782C129.185 22.4791 128.357 23.6879 127.114 24.5275H127.11ZM122.606 2.73133C120.511 2.73133 119.062 3.801 119.062 5.48929C119.062 7.17758 120.467 8.24546 122.606 8.24546C124.34 8.24546 126.12 7.37903 126.12 5.48929C126.12 3.59955 124.372 2.73133 122.606 2.73133ZM125.066 19.2755C124.317 18.843 123.467 18.6255 122.606 18.6462C120.537 18.6462 119.114 19.5376 119.114 20.8782C119.114 22.1636 120.537 23.1102 122.606 23.1102C123.467 23.1304 124.318 22.9122 125.066 22.4791C125.686 22.0851 126.074 21.5075 126.074 20.8746C126.079 20.2204 125.691 19.6695 125.066 19.2755ZM121.061 10.8198C121.007 10.824 120.954 10.8149 120.904 10.793V12.6311H124.372V10.793C124.305 10.8136 124.235 10.8226 124.165 10.8198C123.14 11.0302 122.085 11.0302 121.061 10.8198Z" fill="#003CDC"></path>
							</g>
							<defs>
								<clipPath id="clip0_224_1278">
									<rect width="133" height="26" fill="white"></rect>
								</clipPath>
							</defs>
						</svg>