<svg xmlns="http://www.w3.org/2000/svg" xmlns:xlink="http://www.w3.org/1999/xlink" viewBox="0 0 36 36" width="36" height="36" preserveAspectRatio="xMidYMid meet" style="width: 100%; height: 100%; transform: translate3d(0px, 0px, 0px); content-visibility: visible;"><defs><clipPath id="__lottie_element_13"><rect width="36" height="36" x="0" y="0"></rect></clipPath></defs><g clip-path="url(#__lottie_element_13)"><g transform="matrix(1,0,0,1,0,0)" opacity="1" style="display: block;"><g opacity="1" transform="matrix(1,0,0,1,0,0)"><path stroke-linecap="round" stroke-linejoin="miter" fill-opacity="0" stroke-miterlimit="10" stroke="currentColor" stroke-opacity="1" stroke-width="1.5" d=" M8.75,24.75 C8.75,24.75 27.25,24.75 27.25,24.75"></path></g></g><g transform="matrix(1,0,0,1,0,0)" opacity="1" style="display: block;"><g opacity="1" transform="matrix(1,0,0,1,0,0)"><path stroke-linecap="round" stroke-linejoin="miter" fill-opacity="0" stroke-miterlimit="10" stroke="currentColor" stroke-opacity="1" stroke-width="1.5" d=" M8.75,18 C8.75,18 27.25,18 27.25,18"></path></g></g><g transform="matrix(1,0,0,1,0,0)" opacity="1" style="display: block;"><g opacity="1" transform="matrix(1,0,0,1,0,0)"><path stroke-linecap="round" stroke-linejoin="miter" fill-opacity="0" stroke-miterlimit="10" stroke="currentColor" stroke-opacity="1" stroke-width="1.5" d=" M8.75,11.25 C8.75,11.25 27.25,11.25 27.25,11.25"></path></g></g></g></svg>